<svg width="13" height="15" viewBox="0 0 13 15" fill="none" xmlns="http://www.w3.org/2000/svg">
<path d="M10.5301 14.4005C9.71708 15.1895 8.82008 15.0665 7.96508 14.6945C7.05608 14.315 6.22508 14.291 5.26508 14.6945C4.06959 15.2105 3.43509 15.0605 2.71509 14.4005C-1.34991 10.2155 -0.749912 3.84051 3.87009 3.60051C4.99058 3.66051 5.77508 4.22001 6.43508 4.26651C7.41608 4.06701 8.35508 3.49551 9.40508 3.57051C10.6666 3.67251 11.6101 4.17051 12.2401 5.06601C9.64508 6.62601 10.2601 10.046 12.6436 11.006C12.1666 12.2585 11.5546 13.496 10.5286 14.411L10.5301 14.4005ZM6.34508 3.55551C6.22358 1.69552 7.73108 0.165518 9.46508 0.0155182C9.70358 2.16052 7.51508 3.76551 6.34508 3.55551Z" fill="black"/>
</svg>
