<svg
width="40"
height="40"
viewBox="0 0 40 40"
fill="none"
xmlns="http://www.w3.org/2000/svg"
>
<circle cx="20" cy="20" r="20" fill="white"></circle>
<g clip-path="url(#clip0)">
    <path
    d="M29.9804 15.8801C29.9336 14.8174 29.7617 14.0868 29.5155 13.4537C29.2616 12.7818 28.8709 12.1801 28.359 11.68C27.8589 11.1721 27.2533 10.7774 26.5891 10.5274C25.9524 10.2813 25.2256 10.1094 24.1629 10.0626C23.0923 10.0118 22.7524 10 20.0371 10C17.3217 10 16.9818 10.0118 15.9152 10.0586C14.8525 10.1055 14.1219 10.2775 13.489 10.5235C12.8169 10.7774 12.2153 11.1681 11.7151 11.68C11.2072 12.1801 10.8127 12.7857 10.5626 13.4499C10.3164 14.0868 10.1445 14.8134 10.0977 15.8761C10.0469 16.9467 10.0351 17.2866 10.0351 20.002C10.0351 22.7173 10.0469 23.0572 10.0937 24.1239C10.1406 25.1865 10.3126 25.9171 10.5587 26.5502C10.8127 27.2221 11.2072 27.8238 11.7151 28.3239C12.2153 28.8318 12.8208 29.2265 13.485 29.4765C14.1219 29.7226 14.8485 29.8945 15.9114 29.9413C16.9778 29.9883 17.3179 29.9999 20.0332 29.9999C22.7486 29.9999 23.0885 29.9883 24.1551 29.9413C25.2178 29.8945 25.9484 29.7226 26.5813 29.4765C27.9254 28.9568 28.9881 27.8941 29.5078 26.5502C29.7538 25.9133 29.9258 25.1865 29.9726 24.1239C30.0195 23.0572 30.0312 22.7173 30.0312 20.002C30.0312 17.2866 30.0273 16.9467 29.9804 15.8801Z"
    fill="black"
    ></path>
    <path
    d="M20.0371 14.8643C17.2007 14.8643 14.8994 17.1654 14.8994 20.002C14.8994 22.8385 17.2007 25.1397 20.0371 25.1397C22.8736 25.1397 25.1748 22.8385 25.1748 20.002C25.1748 17.1654 22.8736 14.8643 20.0371 14.8643ZM20.0371 23.3347C18.197 23.3347 16.7044 21.8422 16.7044 20.002C16.7044 18.1617 18.197 16.6693 20.0371 16.6693C21.8773 16.6693 23.3698 18.1617 23.3698 20.002C23.3698 21.8422 21.8773 23.3347 20.0371 23.3347Z"
    fill="white"
    ></path>
    <path
    d="M26.5775 14.6613C26.5775 15.3237 26.0405 15.8608 25.3779 15.8608C24.7156 15.8608 24.1785 15.3237 24.1785 14.6613C24.1785 13.9988 24.7156 13.4619 25.3779 13.4619C26.0405 13.4619 26.5775 13.9988 26.5775 14.6613Z"
    fill="white"
    ></path>
</g>
<defs>
    <clipPath id="clip0">
    <rect
        width="20"
        height="20"
        fill="white"
        transform="translate(10 10)"
    ></rect>
    </clipPath>
</defs>
</svg>