<svg width="319" height="304" viewBox="0 0 319 304" fill="none" xmlns="http://www.w3.org/2000/svg">
<g opacity="0.9">
<g opacity="0.41">
<g opacity="0.41">
<g opacity="0.41">
<path opacity="0.41" d="M318.861 191.745C319.138 186.605 319 181.464 318.444 176.393C315.735 152.497 303.439 129.921 285.378 113.943C278.918 108.247 271.624 103.176 267.386 95.6738C260.301 83.031 260.857 68.5126 252.104 56.0782C243.351 43.5744 230.5 33.8491 216.12 28.8476C173.121 13.9124 112.894 38.2255 118.312 90.0471C118.312 90.2555 118.382 90.5333 118.382 90.8112C119.077 101.578 110.671 110.609 99.9039 110.887C60.2389 111.859 26.0616 142.424 18.7677 181.186C14.044 206.125 21.7547 233.425 40.0243 251.069C53.6396 264.198 71.9091 271.492 90.1787 276.424C126.787 286.358 165.341 288.442 203.13 284.691C238.489 281.148 275.792 270.936 298.646 243.775C310.803 229.257 317.749 210.64 318.861 191.745Z" fill="#CDCDCD"/>
</g>
</g>
</g>
<g opacity="0.31">
<path opacity="0.31" d="M146.204 17.4014C147.018 12.3642 143.594 7.62095 138.557 6.80709C133.52 5.99323 128.777 9.41696 127.963 14.4542C127.149 19.4914 130.573 24.2347 135.61 25.0485C140.647 25.8624 145.39 22.4387 146.204 17.4014Z" fill="#CDCDCD"/>
</g>
<g opacity="0.31">
<path opacity="0.31" d="M261.829 15.0933C264.476 15.0933 266.622 12.9474 266.622 10.3002C266.622 7.65299 264.476 5.50702 261.829 5.50702C259.182 5.50702 257.036 7.65299 257.036 10.3002C257.036 12.9474 259.182 15.0933 261.829 15.0933Z" fill="#CDCDCD"/>
</g>
<g opacity="0.31">
<path opacity="0.31" d="M99.8374 38.1406C100.692 34.7158 98.6077 31.2471 95.1829 30.3929C91.7582 29.5388 88.2894 31.6227 87.4353 35.0474C86.5811 38.4722 88.665 41.9409 92.0897 42.7951C95.5145 43.6492 98.9832 41.5653 99.8374 38.1406Z" fill="#CDCDCD"/>
</g>
<g opacity="0.31">
<path opacity="0.31" d="M20.0184 282.676C28.0367 282.676 34.5368 276.176 34.5368 268.158C34.5368 260.14 28.0367 253.639 20.0184 253.639C12.0001 253.639 5.5 260.14 5.5 268.158C5.5 276.176 12.0001 282.676 20.0184 282.676Z" fill="#CDCDCD"/>
</g>
<path opacity="0.47" d="M314.901 41.3514C319.069 33.2934 315.874 23.3598 307.816 19.2613C299.758 15.0933 284.197 15.4406 280.099 23.4987C275.931 31.5567 288.365 38.5033 293.436 46.0057C300.452 56.4256 310.733 49.4095 314.901 41.3514Z" fill="#ECF1F7"/>
<path opacity="0.47" d="M279.613 289.414C285.448 293.166 293.228 291.498 297.049 285.663C300.869 279.828 301.772 267.949 295.937 264.198C290.102 260.447 283.85 269.408 277.737 272.673C269.193 277.258 273.778 285.663 279.613 289.414Z" fill="#CDCDCD"/>
<path opacity="0.47" d="M41.2056 4.25662C34.8148 -1.71745 24.7422 -1.37012 18.7681 5.09021C12.794 11.4811 9.04289 25.9995 15.4338 31.9735C21.8246 37.9476 31.5499 28.2224 39.8858 25.4437C51.5561 21.6926 47.666 10.2307 41.2056 4.25662Z" fill="#CDCDCD"/>
<path opacity="0.47" d="M5.84748 73.6531C0.151267 86.0875 -1.44645 100.398 1.33219 113.804C4.59709 129.573 14.3918 141.66 10.988 158.471C8.90398 168.683 8.41772 178.199 7.37573 188.341C5.22228 209.112 18.6987 227.451 35.44 237.384C49.0553 245.442 64.963 248.429 80.6623 248.221C94.7639 248.013 108.796 245.442 122.411 241.9C135.54 238.565 148.392 234.119 162.215 235.509C173.677 236.69 184.028 241.622 194.656 245.303C220.15 254.126 250.993 255.376 274.333 241.969C289.269 233.355 299.758 219.323 304.412 204.319C308.094 192.301 308.58 181.047 305.801 168.752C302.953 156.179 298.091 143.466 299.619 130.337C300.661 121.168 304.829 112.346 304.065 103.176C303.579 97.0631 300.869 91.3669 297.604 86.157C285.587 67.3317 265.511 54.6889 244.324 47.7423C224.318 41.2125 203.756 36.4194 182.916 38.0171C139.917 41.282 131.095 34.4743 87.1226 25.0269C58.6416 18.9139 26.8957 40.5179 10.2933 65.5951C8.55665 68.1653 7.09786 70.8745 5.84748 73.6531Z" fill="#DFDFDF"/>
<path opacity="0.81" d="M35.4396 93.0341C34.5365 102.968 37.8709 113.179 35.0922 123.043C31.7579 134.783 22.0326 143.605 18.0731 155.206C12.2379 172.295 12.5158 191.398 19.6013 208.07C23.0052 216.058 28.0067 223.561 34.8144 228.701C45.3037 236.62 59.1275 238.357 72.0481 237.384C91.3597 235.856 111.713 227.52 131.094 229.813C141.792 231.063 145.057 242.664 150.614 250.305C156.866 258.919 165.41 265.726 174.788 270.242C192.155 278.578 212.925 279.342 230.639 271.839C249.534 263.781 266.067 244.123 264.955 221.893C264.469 211.612 260.301 201.401 262.246 191.259C264.608 178.547 274.194 167.015 281.141 156.665C288.782 145.272 293.436 131.657 294.339 117.764C294.339 117.625 294.339 117.417 294.339 117.278C295.728 93.312 280.654 71.4302 257.8 63.9279L209.243 47.9507C160.061 31.6262 110.88 32.1819 65.5878 55.9393C55.7931 61.0798 39.8159 76.4317 36.551 86.9906C35.9258 88.9356 35.5785 90.9501 35.4396 93.0341Z" fill="#F1F1F1"/>
<path opacity="0.58" d="M310.873 252.597C312.599 252.597 313.999 251.198 313.999 249.471C313.999 247.745 312.599 246.345 310.873 246.345C309.146 246.345 307.747 247.745 307.747 249.471C307.747 251.198 309.146 252.597 310.873 252.597Z" fill="#C9C9C9"/>
<path opacity="0.58" d="M166.453 8.98032C168.179 8.98032 169.579 7.58077 169.579 5.85435C169.579 4.12792 168.179 2.72838 166.453 2.72838C164.726 2.72838 163.327 4.12792 163.327 5.85435C163.327 7.58077 164.726 8.98032 166.453 8.98032Z" fill="#C9C9C9"/>
<path opacity="0.58" d="M53.501 281.426C55.2274 281.426 56.6269 280.026 56.6269 278.3C56.6269 276.573 55.2274 275.174 53.501 275.174C51.7745 275.174 50.375 276.573 50.375 278.3C50.375 280.026 51.7745 281.426 53.501 281.426Z" fill="#C9C9C9"/>
<path opacity="0.58" d="M250.784 293.86C252.127 293.86 253.216 292.772 253.216 291.429C253.216 290.086 252.127 288.998 250.784 288.998C249.442 288.998 248.353 290.086 248.353 291.429C248.353 292.772 249.442 293.86 250.784 293.86Z" fill="#989898"/>
<path opacity="0.58" d="M39.6772 60.1072C40.2527 60.1072 40.7192 59.6407 40.7192 59.0653C40.7192 58.4898 40.2527 58.0233 39.6772 58.0233C39.1018 58.0233 38.6353 58.4898 38.6353 59.0653C38.6353 59.6407 39.1018 60.1072 39.6772 60.1072Z" fill="#C9C9C9"/>
<path opacity="0.58" d="M261.69 28.014C261.274 30.0285 259.259 31.3483 257.245 30.9316C255.23 30.5148 253.91 28.5002 254.327 26.4857C254.744 24.4712 256.758 23.1514 258.773 23.5682C260.787 23.985 262.107 25.93 261.69 28.014Z" fill="#989898"/>
<path opacity="0.58" d="M61.0729 10.717C60.934 11.4811 60.1004 12.0368 59.3363 11.8284C58.5721 11.6895 58.0164 10.8559 58.2248 10.0918C58.3637 9.32764 59.1973 8.77191 59.9615 8.98031C60.7256 9.18871 61.2119 9.95283 61.0729 10.717Z" fill="#989898"/>
<path opacity="0.58" d="M295.659 4.53448C295.52 5.22914 294.826 5.64594 294.201 5.50701C293.575 5.36808 293.089 4.67342 293.228 4.04822C293.367 3.35356 294.062 2.93677 294.687 3.0757C295.381 3.21463 295.798 3.83983 295.659 4.53448Z" fill="#C9C9C9"/>
<path opacity="0.58" d="M30.9942 302.96C30.8553 303.655 30.1607 304.072 29.5355 303.933C28.9103 303.794 28.424 303.099 28.5629 302.474C28.7019 301.779 29.3965 301.363 30.0217 301.501C30.7164 301.64 31.1332 302.335 30.9942 302.96Z" fill="#C9C9C9"/>
<g opacity="0.66">
<g opacity="0.66">
<g opacity="0.66">
<g opacity="0.66">
<path opacity="0.66" d="M121.021 116.236L115.464 115.819C115.047 111.651 113.728 107.761 111.713 104.288L115.95 100.675C118.104 98.8693 118.312 95.6044 116.506 93.5204C114.7 91.3669 111.435 91.1585 109.351 92.9647L105.114 96.5769C101.988 94.0066 98.3061 92.1311 94.2771 91.0891L94.6939 85.5318C94.9023 82.7532 92.8183 80.3218 90.0396 80.044C87.261 79.8356 84.8297 81.9196 84.5518 84.6982L84.135 90.2555C79.9671 90.6723 76.077 91.9921 72.6037 94.0066L68.9915 89.7692C67.1853 87.6158 63.9204 87.4074 61.8365 89.2135C59.683 91.0196 59.4746 94.2845 61.2807 96.3685L64.893 100.606C62.3227 103.732 60.4471 107.414 59.4051 111.443L53.8479 111.026C51.0692 110.817 48.6379 112.901 48.3601 115.68C48.1517 118.459 50.2356 120.89 53.0143 121.168L58.5716 121.585C58.9884 125.753 60.3082 129.643 62.3227 133.116L58.0853 136.728C55.9319 138.534 55.7235 141.799 57.5296 143.883C59.3357 146.037 62.6006 146.245 64.6846 144.439L68.922 140.827C72.048 143.397 75.7297 145.273 79.7587 146.315L79.3419 151.872C79.1335 154.65 81.2175 157.082 83.9961 157.36C86.7747 157.568 89.206 155.484 89.4839 152.705L89.9007 147.148C94.0687 146.731 97.9588 145.411 101.432 143.397L105.044 147.634C106.85 149.788 110.115 149.996 112.199 148.19C114.353 146.384 114.561 143.119 112.755 141.035L109.143 136.798C111.713 133.672 113.589 129.99 114.631 125.961L120.188 126.378C122.966 126.586 125.398 124.502 125.676 121.724C125.954 118.875 123.8 116.444 121.021 116.236ZM85.4549 139.368C74.0625 138.465 65.5182 128.531 66.3517 117.139C67.2548 105.746 77.1884 97.2021 88.5809 98.0357C99.9733 98.9387 108.518 108.872 107.684 120.265C106.85 131.657 96.8473 140.202 85.4549 139.368Z" fill="white"/>
</g>
</g>
<g opacity="0.66">
<g opacity="0.66">
<path opacity="0.66" d="M239.114 272.117C238.419 272.117 237.794 271.978 237.168 271.631C236.196 271.075 235.432 270.242 235.084 269.13L234.112 266.004C231.542 266.282 228.971 266.074 226.54 265.379L225.012 268.297C223.97 270.381 221.4 271.214 219.316 270.103C218.343 269.547 217.579 268.714 217.232 267.602C216.884 266.491 217.023 265.379 217.51 264.337L219.038 261.42C217.023 259.822 215.426 257.807 214.106 255.584L210.98 256.557C208.757 257.252 206.395 256.001 205.631 253.778C205.284 252.667 205.423 251.555 205.909 250.513C206.465 249.541 207.298 248.777 208.41 248.429L211.536 247.457C211.258 244.887 211.466 242.316 212.161 239.885L209.243 238.357C208.271 237.801 207.506 236.968 207.159 235.856C206.812 234.745 206.951 233.633 207.437 232.591C207.993 231.619 208.826 230.855 209.938 230.507C211.049 230.16 212.161 230.299 213.203 230.785L216.12 232.313C217.718 230.299 219.733 228.701 221.955 227.381L220.983 224.255C220.288 222.032 221.539 219.671 223.762 218.906C224.873 218.559 225.984 218.698 227.026 219.184C227.999 219.74 228.763 220.574 229.11 221.685L230.083 224.811C232.653 224.533 235.223 224.742 237.655 225.436L239.183 222.519C240.225 220.435 242.795 219.601 244.879 220.713C246.963 221.755 247.797 224.325 246.685 226.409L245.157 229.326C247.172 230.924 248.769 232.939 250.089 235.161L253.215 234.189C254.327 233.842 255.438 233.981 256.48 234.467C257.453 235.023 258.217 235.856 258.564 236.968C259.259 239.191 258.008 241.552 255.785 242.316L252.659 243.289C252.937 245.859 252.729 248.429 252.034 250.861L254.952 252.389C257.036 253.431 257.869 256.001 256.758 258.085C256.202 259.058 255.369 259.822 254.257 260.169C253.146 260.517 252.034 260.378 250.992 259.891L248.075 258.363C246.477 260.378 244.462 261.975 242.239 263.295L243.212 266.421C243.559 267.533 243.42 268.644 242.934 269.686C242.378 270.659 241.545 271.423 240.433 271.77C240.017 272.048 239.6 272.117 239.114 272.117ZM235.084 264.476L236.404 268.714C236.613 269.408 237.099 270.033 237.794 270.381C238.488 270.728 239.252 270.798 239.947 270.589C240.642 270.381 241.267 269.894 241.614 269.2C241.962 268.505 242.031 267.741 241.823 267.046L240.503 262.809L240.989 262.531C243.42 261.211 245.574 259.475 247.241 257.252L247.588 256.765L251.548 258.78C252.243 259.127 253.007 259.197 253.701 258.988C254.396 258.78 255.021 258.294 255.369 257.599C256.063 256.21 255.577 254.473 254.118 253.778L250.159 251.764L250.298 251.208C251.131 248.568 251.34 245.79 250.992 243.081L250.923 242.525L255.16 241.205C256.688 240.719 257.522 239.121 257.036 237.662C256.827 236.968 256.341 236.342 255.646 235.995C254.952 235.648 254.188 235.578 253.493 235.787L249.256 237.107L248.978 236.62C247.658 234.189 245.921 232.036 243.698 230.368L243.212 230.021L245.227 226.061C245.921 224.672 245.435 222.935 243.976 222.241C242.587 221.546 240.85 222.032 240.155 223.491L238.141 227.451L237.585 227.312C234.946 226.478 232.167 226.27 229.458 226.617L228.902 226.687L227.582 222.449C227.374 221.755 226.887 221.129 226.193 220.782C225.498 220.435 224.734 220.365 224.039 220.574C222.511 221.06 221.678 222.658 222.164 224.116L223.484 228.354L222.997 228.632C220.566 229.952 218.413 231.688 216.745 233.911L216.398 234.397L212.439 232.383C211.744 232.036 210.98 231.966 210.285 232.174C209.59 232.383 208.965 232.869 208.618 233.564C208.271 234.258 208.201 235.023 208.41 235.717C208.618 236.412 209.104 237.037 209.799 237.384L213.758 239.399L213.62 239.955C212.786 242.594 212.578 245.373 212.925 248.082L212.994 248.638L208.757 249.958C208.062 250.166 207.437 250.652 207.09 251.347C206.742 252.042 206.673 252.806 206.881 253.5C207.368 255.029 208.965 255.862 210.424 255.376L214.662 254.056L214.939 254.542C216.259 256.974 217.996 259.127 220.219 260.794L220.705 261.142L218.691 265.032C218.343 265.726 218.274 266.491 218.482 267.185C218.691 267.88 219.177 268.505 219.871 268.852C221.261 269.547 222.997 269.061 223.692 267.602L225.707 263.643L226.262 263.781C228.902 264.615 231.681 264.823 234.39 264.476H235.084ZM232.028 260.586C229.666 260.586 227.235 260.03 225.081 258.849C221.469 256.974 218.829 253.848 217.649 249.958C216.398 246.137 216.815 242.039 218.621 238.426C220.497 234.814 223.623 232.174 227.513 230.994C231.333 229.743 235.432 230.16 239.044 231.966C242.656 233.842 245.296 236.968 246.477 240.858C247.727 244.678 247.311 248.777 245.504 252.389C243.629 256.001 240.503 258.641 236.613 259.822C235.154 260.378 233.556 260.586 232.028 260.586ZM232.097 231.758C230.708 231.758 229.319 231.966 227.929 232.383C224.456 233.494 221.608 235.926 219.871 239.121C218.204 242.386 217.857 246.068 218.968 249.61C220.08 253.084 222.511 255.932 225.707 257.668C228.971 259.336 232.653 259.683 236.196 258.572C239.669 257.46 242.517 255.029 244.254 251.833C245.921 248.568 246.269 244.887 245.157 241.344C244.046 237.871 241.614 235.023 238.419 233.286C236.404 232.244 234.251 231.758 232.097 231.758Z" fill="white"/>
</g>
</g>
<g opacity="0.66">
<g opacity="0.66">
<path opacity="0.66" d="M275.652 246.137C275.374 246.137 275.097 246.137 274.888 246.068C271.901 245.651 269.817 242.872 270.303 239.885L270.998 235.3C267.664 234.119 264.607 232.313 261.967 229.882L258.286 232.661C257.105 233.564 255.716 233.911 254.257 233.703C252.798 233.494 251.548 232.73 250.645 231.549C248.838 229.118 249.325 225.714 251.756 223.908L255.438 221.129C253.909 217.934 253.006 214.461 252.867 210.918L248.283 210.223C245.296 209.806 243.212 207.028 243.698 204.041C243.906 202.582 244.67 201.332 245.851 200.428C247.032 199.525 248.491 199.178 249.88 199.386L254.465 200.081C255.646 196.747 257.452 193.69 259.883 191.051L257.105 187.369C256.202 186.188 255.854 184.729 256.063 183.34C256.271 181.881 257.035 180.631 258.216 179.728C259.397 178.825 260.787 178.477 262.245 178.686C263.704 178.894 264.954 179.658 265.858 180.839L268.636 184.521C271.832 182.993 275.305 182.089 278.848 181.951L279.542 177.366C279.959 174.379 282.738 172.295 285.725 172.781C287.184 172.989 288.434 173.754 289.337 174.934C290.24 176.115 290.587 177.574 290.379 178.963L289.684 183.548C293.019 184.729 296.075 186.535 298.715 188.967L302.397 186.188C304.828 184.382 308.232 184.868 310.038 187.299C311.844 189.731 311.358 193.135 308.926 194.941L305.245 197.719C306.773 200.915 307.676 204.388 307.815 207.931L312.4 208.625C315.387 209.042 317.471 211.821 316.984 214.808C316.568 217.795 313.789 219.879 310.802 219.393L306.217 218.698C305.036 222.032 303.23 225.089 300.799 227.729L303.578 231.41C305.384 233.842 304.897 237.245 302.466 239.052C301.285 239.955 299.826 240.302 298.437 240.094C296.978 239.885 295.728 239.121 294.825 237.94L292.046 234.258C288.851 235.787 285.377 236.69 281.835 236.829L281.14 241.413C280.654 244.192 278.292 246.137 275.652 246.137ZM261.898 228.145L262.315 228.562C265.093 231.132 268.289 233.008 271.832 234.258L272.387 234.467L271.554 240.163C271.206 242.386 272.804 244.47 275.027 244.748C277.25 245.095 279.334 243.497 279.612 241.274L280.445 235.578H281.001C284.752 235.439 288.365 234.536 291.768 232.869L292.255 232.591L295.728 237.245C296.353 238.148 297.326 238.704 298.368 238.843C299.41 238.982 300.521 238.704 301.355 238.079C303.161 236.759 303.508 234.189 302.188 232.383L298.715 227.729L299.132 227.312C301.702 224.533 303.578 221.338 304.828 217.795L305.036 217.239L310.733 218.073C312.955 218.42 315.039 216.822 315.317 214.6C315.665 212.377 314.067 210.293 311.844 210.015L306.148 209.181V208.625C306.009 204.874 305.106 201.262 303.439 197.858L303.161 197.372L307.815 193.899C309.621 192.579 309.968 190.009 308.649 188.202C308.023 187.299 307.051 186.744 306.009 186.605C304.967 186.466 303.855 186.744 303.022 187.369L298.368 190.842L297.951 190.425C295.172 187.855 291.977 185.91 288.434 184.729L287.878 184.521L288.712 178.825C288.851 177.783 288.573 176.671 287.948 175.838C287.323 174.934 286.35 174.379 285.308 174.24C283.085 173.892 281.001 175.49 280.723 177.713L279.89 183.409H279.334C275.583 183.548 271.971 184.451 268.567 186.118L268.08 186.396L264.607 181.742C263.982 180.839 263.009 180.283 261.967 180.144C260.925 180.005 259.814 180.283 258.98 180.909C258.077 181.534 257.522 182.506 257.383 183.548C257.244 184.59 257.522 185.702 258.147 186.535L261.62 191.19L261.203 191.606C258.633 194.385 256.688 197.58 255.507 201.123L255.299 201.679L249.603 200.845C248.561 200.706 247.449 200.984 246.615 201.609C245.712 202.235 245.157 203.207 245.018 204.249C244.67 206.472 246.268 208.556 248.491 208.834L254.187 209.667V210.223C254.326 213.974 255.229 217.587 256.896 220.99L257.174 221.477L252.52 224.95C251.617 225.575 251.061 226.548 250.922 227.59C250.783 228.632 251.061 229.743 251.687 230.577C252.312 231.48 253.284 232.035 254.326 232.174C255.368 232.313 256.48 232.035 257.313 231.41L261.898 228.145ZM280.168 229.535C274.055 229.535 268.011 226.756 264.051 221.477C257.452 212.585 259.258 200.012 268.15 193.343C272.457 190.147 277.736 188.758 283.085 189.592C288.365 190.356 293.088 193.135 296.284 197.441C299.479 201.748 300.868 207.028 300.035 212.377C299.271 217.656 296.492 222.38 292.185 225.575C288.573 228.284 284.336 229.535 280.168 229.535ZM280.098 190.773C276.069 190.773 272.248 192.023 268.984 194.524C260.717 200.706 258.98 212.446 265.163 220.713C271.345 228.979 283.085 230.646 291.352 224.533C295.381 221.546 297.951 217.17 298.645 212.238C299.34 207.306 298.09 202.374 295.103 198.344C292.116 194.315 287.739 191.745 282.807 191.051C281.904 190.842 281.001 190.773 280.098 190.773Z" fill="white"/>
</g>
</g>
</g>
</g>
<g opacity="0.81">
<path opacity="0.81" d="M185.834 248.985H171.593C171.176 248.985 170.898 248.707 170.898 248.291C170.898 247.874 171.176 247.596 171.593 247.596H185.834C186.25 247.596 186.528 247.874 186.528 248.291C186.528 248.638 186.181 248.985 185.834 248.985Z" fill="white"/>
<path opacity="0.81" d="M185.834 263.781H171.593C171.176 263.781 170.898 263.504 170.898 263.087C170.898 262.67 171.176 262.392 171.593 262.392H185.834C186.25 262.392 186.528 262.67 186.528 263.087C186.528 263.504 186.181 263.781 185.834 263.781Z" fill="white"/>
<g opacity="0.81">
<g opacity="0.81">
<g opacity="0.81">
<path opacity="0.81" d="M196.601 278.786H108.448C107.406 278.786 106.573 277.952 106.573 276.911V231.202C106.573 230.16 107.406 229.326 108.448 229.326H196.601C197.643 229.326 198.476 230.16 198.476 231.202V276.911C198.476 277.952 197.643 278.786 196.601 278.786ZM108.448 230.646C108.17 230.646 107.962 230.855 107.962 231.132V276.841C107.962 277.119 108.17 277.327 108.448 277.327H196.601C196.878 277.327 197.087 277.119 197.087 276.841V231.132C197.087 230.855 196.878 230.646 196.601 230.646H108.448Z" fill="white"/>
<path opacity="0.66" d="M196.601 278.786H108.448C107.406 278.786 106.573 277.952 106.573 276.911V231.202C106.573 230.16 107.406 229.326 108.448 229.326H196.601C197.643 229.326 198.476 230.16 198.476 231.202V276.911C198.476 277.952 197.643 278.786 196.601 278.786ZM108.448 230.646C108.17 230.646 107.962 230.855 107.962 231.132V276.841C107.962 277.119 108.17 277.327 108.448 277.327H196.601C196.878 277.327 197.087 277.119 197.087 276.841V231.132C197.087 230.855 196.878 230.646 196.601 230.646H108.448Z" fill="white"/>
</g>
</g>
<path opacity="0.81" d="M185.834 241.761H117.826C117.41 241.761 117.132 241.483 117.132 241.066C117.132 240.649 117.41 240.371 117.826 240.371H185.834C186.25 240.371 186.528 240.649 186.528 241.066C186.528 241.483 186.181 241.761 185.834 241.761Z" fill="white"/>
<path opacity="0.81" d="M185.834 256.14H117.826C117.41 256.14 117.132 255.862 117.132 255.446C117.132 255.029 117.41 254.751 117.826 254.751H185.834C186.25 254.751 186.528 255.029 186.528 255.446C186.528 255.862 186.181 256.14 185.834 256.14Z" fill="white"/>
<path opacity="0.81" d="M154.435 248.985H117.757C117.34 248.985 117.062 248.707 117.062 248.291C117.062 247.874 117.34 247.596 117.757 247.596H154.435C154.852 247.596 155.13 247.874 155.13 248.291C155.13 248.638 154.852 248.985 154.435 248.985Z" fill="white"/>
<path opacity="0.81" d="M154.435 263.781H117.757C117.34 263.781 117.062 263.504 117.062 263.087C117.062 262.67 117.34 262.392 117.757 262.392H154.435C154.852 262.392 155.13 262.67 155.13 263.087C155.13 263.504 154.852 263.781 154.435 263.781Z" fill="white"/>
<path opacity="0.81" d="M142.556 270.659H117.826C117.41 270.659 117.132 270.381 117.132 269.964C117.132 269.547 117.41 269.269 117.826 269.269H142.556C142.973 269.269 143.251 269.547 143.251 269.964C143.251 270.381 142.904 270.659 142.556 270.659Z" fill="white"/>
</g>
</g>
<g opacity="0.81">
<path opacity="0.81" d="M49.2633 204.458H33.2166C32.7998 204.458 32.522 204.18 32.522 203.763C32.522 203.346 32.7998 203.068 33.2166 203.068H49.2633C49.6801 203.068 49.9579 203.346 49.9579 203.763C49.9579 204.18 49.6801 204.458 49.2633 204.458Z" fill="white"/>
<path opacity="0.81" d="M49.2633 187.786H33.2166C32.7998 187.786 32.522 187.508 32.522 187.091C32.522 186.674 32.7998 186.396 33.2166 186.396H49.2633C49.6801 186.396 49.9579 186.674 49.9579 187.091C49.9579 187.508 49.6801 187.786 49.2633 187.786Z" fill="white"/>
<g opacity="0.81">
<g opacity="0.81">
<g opacity="0.81">
<path opacity="0.81" d="M120.327 225.089H20.9908C19.9488 225.089 19.1152 224.255 19.1152 223.213V171.531C19.1152 170.489 19.9488 169.655 20.9908 169.655H120.327C121.369 169.655 122.203 170.489 122.203 171.531V223.213C122.203 224.186 121.369 225.089 120.327 225.089ZM20.9908 170.975C20.713 170.975 20.5046 171.183 20.5046 171.461V223.144C20.5046 223.422 20.713 223.63 20.9908 223.63H120.327C120.605 223.63 120.813 223.422 120.813 223.144V171.461C120.813 171.183 120.605 170.975 120.327 170.975H20.9908Z" fill="white"/>
<path opacity="0.66" d="M120.327 225.089H20.9908C19.9488 225.089 19.1152 224.255 19.1152 223.213V171.531C19.1152 170.489 19.9488 169.655 20.9908 169.655H120.327C121.369 169.655 122.203 170.489 122.203 171.531V223.213C122.203 224.186 121.369 225.089 120.327 225.089ZM20.9908 170.975C20.713 170.975 20.5046 171.183 20.5046 171.461V223.144C20.5046 223.422 20.713 223.63 20.9908 223.63H120.327C120.605 223.63 120.813 223.422 120.813 223.144V171.461C120.813 171.183 120.605 170.975 120.327 170.975H20.9908Z" fill="white"/>
</g>
</g>
<path opacity="0.81" d="M109.699 212.585H33.2166C32.7998 212.585 32.522 212.307 32.522 211.89C32.522 211.474 32.7998 211.196 33.2166 211.196H109.629C110.046 211.196 110.324 211.474 110.324 211.89C110.393 212.238 110.046 212.585 109.699 212.585Z" fill="white"/>
<path opacity="0.81" d="M109.699 196.399H33.2166C32.7998 196.399 32.522 196.122 32.522 195.705C32.522 195.288 32.7998 195.01 33.2166 195.01H109.629C110.046 195.01 110.324 195.288 110.324 195.705C110.324 196.122 110.046 196.399 109.699 196.399Z" fill="white"/>
<path opacity="0.81" d="M109.699 204.458H68.5057C68.0889 204.458 67.811 204.18 67.811 203.763C67.811 203.346 68.0889 203.068 68.5057 203.068H109.699C110.116 203.068 110.394 203.346 110.394 203.763C110.394 204.18 110.046 204.458 109.699 204.458Z" fill="white"/>
<path opacity="0.81" d="M109.699 187.786H68.5057C68.0889 187.786 67.811 187.508 67.811 187.091C67.811 186.674 68.0889 186.396 68.5057 186.396H109.699C110.116 186.396 110.394 186.674 110.394 187.091C110.394 187.508 110.046 187.786 109.699 187.786Z" fill="white"/>
<path opacity="0.81" d="M109.699 180.075H81.9124C81.4956 180.075 81.2178 179.797 81.2178 179.38C81.2178 178.964 81.4956 178.686 81.9124 178.686H109.699C110.116 178.686 110.393 178.964 110.393 179.38C110.393 179.797 110.046 180.075 109.699 180.075Z" fill="white"/>
</g>
</g>
<path opacity="0.14" d="M236.058 253.153L160.062 208.07C159.437 207.722 159.228 206.889 159.645 206.333L220.983 102.829C221.331 102.204 222.164 101.995 222.72 102.412L298.716 147.495C299.341 147.843 299.549 148.676 299.133 149.232L237.794 252.736C237.447 253.292 236.683 253.5 236.058 253.153Z" fill="#959595"/>
<path d="M234.043 248.985L158.047 203.902C157.422 203.554 157.214 202.721 157.63 202.165L218.969 98.6609C219.316 98.0357 220.15 97.8273 220.705 98.2441L296.701 143.327C297.326 143.675 297.535 144.508 297.118 145.064L235.78 248.568C235.502 249.124 234.668 249.333 234.043 248.985Z" fill="#CFCFCF"/>
<path opacity="0.14" d="M255.924 247.735L169.022 231.688C168.328 231.549 167.841 230.855 167.98 230.16L189.793 111.859C189.932 111.165 190.626 110.678 191.321 110.817L278.223 126.864C278.917 127.003 279.404 127.698 279.265 128.392L257.452 246.693C257.244 247.387 256.619 247.874 255.924 247.735Z" fill="#959595"/>
<path d="M188.15 107.322L165.871 228.167L255.293 244.653L277.572 123.807L188.15 107.322Z" fill="white"/>
<path opacity="0.39" d="M254.049 244.4L167.147 228.354C166.453 228.215 165.966 227.52 166.105 226.826L187.918 108.525C188.057 107.83 188.751 107.344 189.446 107.483L276.348 123.53C277.042 123.669 277.529 124.363 277.39 125.058L255.577 243.358C255.439 244.053 254.744 244.539 254.049 244.4Z" fill="#CFCFCF"/>
<path d="M264.052 137.979C263.983 137.979 263.983 137.979 263.913 137.979L242.17 133.95C241.823 133.88 241.545 133.533 241.615 133.116C241.684 132.769 242.032 132.491 242.448 132.56L264.191 136.589C264.538 136.659 264.816 137.006 264.747 137.423C264.677 137.77 264.4 137.979 264.052 137.979Z" fill="white"/>
<path d="M262.802 144.925C262.732 144.925 262.732 144.925 262.663 144.925L240.92 140.896C240.573 140.827 240.295 140.479 240.364 140.063C240.434 139.715 240.781 139.437 241.198 139.507L262.941 143.536C263.288 143.605 263.566 143.953 263.496 144.369C263.427 144.717 263.08 144.925 262.802 144.925Z" fill="white"/>
<path d="M261.413 152.497C261.343 152.497 261.343 152.497 261.274 152.497L239.531 148.468C239.183 148.398 238.906 148.051 238.975 147.634C239.045 147.287 239.392 147.009 239.809 147.079L261.552 151.108C261.899 151.177 262.177 151.524 262.107 151.941C262.038 152.289 261.69 152.497 261.413 152.497Z" fill="white"/>
<path opacity="0.14" d="M227.721 158.957L190.418 152.08C189.654 151.941 189.167 151.247 189.306 150.482L196.67 110.401C196.809 109.636 197.503 109.15 198.267 109.289L235.571 116.166C236.335 116.305 236.821 117 236.682 117.764L229.319 157.846C229.18 158.541 228.485 159.096 227.721 158.957Z" fill="#959595"/>
<path d="M226.332 156.595L190.835 150.066C190.071 149.927 189.584 149.232 189.723 148.468L196.739 110.54C196.878 109.775 197.573 109.289 198.337 109.428L233.834 115.958C234.598 116.097 235.085 116.791 234.946 117.556L227.93 155.484C227.86 156.248 227.096 156.734 226.332 156.595Z" fill="#D5D5D5"/>
<path opacity="0.07" d="M234.32 121.098L196.044 114.013L196.739 110.401C196.878 109.636 197.573 109.15 198.337 109.289L233.973 115.888C234.668 116.027 235.154 116.722 235.015 117.417L234.32 121.098Z" fill="#ECF1F7"/>
<path d="M206.742 132.908C206.465 132.908 206.187 132.908 205.909 132.838L205.353 132.769C202.574 132.282 200.699 129.573 201.185 126.725L202.505 119.501C202.644 118.945 203.13 118.528 203.686 118.667C204.242 118.737 204.658 119.292 204.52 119.848L203.2 127.072C202.922 128.74 204.033 130.407 205.7 130.685L206.256 130.754C207.576 131.032 208.826 130.129 209.035 128.809L212.439 110.47C212.717 109.15 211.813 107.83 210.424 107.552L209.521 107.414C208.062 107.136 206.673 108.108 206.465 109.567L206.395 110.053C206.256 110.609 205.77 111.026 205.214 110.887C204.658 110.817 204.242 110.262 204.381 109.706L204.45 109.22C204.936 106.649 207.368 104.982 209.938 105.399L210.841 105.538C213.342 106.024 214.939 108.386 214.523 110.887L211.119 129.226C210.771 131.449 208.896 132.908 206.742 132.908Z" fill="#959595"/>
<path d="M210.355 117.556L196.392 114.985C196.184 114.985 196.045 114.777 196.114 114.569C196.184 114.36 196.323 114.221 196.531 114.291L210.424 116.861C210.633 116.861 210.772 117.069 210.702 117.278C210.702 117.417 210.563 117.556 210.355 117.556Z" fill="white"/>
<path d="M252.799 189.314C252.729 189.314 252.729 189.314 252.66 189.314L186.181 177.088C185.833 177.018 185.556 176.671 185.625 176.254C185.694 175.907 186.042 175.629 186.459 175.699L252.937 187.925C253.285 187.994 253.563 188.341 253.493 188.758C253.424 189.106 253.146 189.314 252.799 189.314Z" fill="white"/>
<path d="M248.075 215.086C248.005 215.086 248.005 215.086 247.936 215.086L181.457 202.86C181.11 202.79 180.832 202.443 180.901 202.026C180.971 201.679 181.318 201.401 181.735 201.47L248.214 213.696C248.561 213.766 248.839 214.113 248.77 214.53C248.7 214.877 248.422 215.086 248.075 215.086Z" fill="white"/>
<path d="M215.426 195.774C215.356 195.774 215.356 195.774 215.287 195.774L183.888 190.009C183.541 189.939 183.263 189.592 183.332 189.175C183.402 188.828 183.749 188.55 184.166 188.619L215.565 194.385C215.912 194.454 216.19 194.802 216.12 195.219C216.051 195.496 215.704 195.774 215.426 195.774Z" fill="white"/>
<path d="M219.733 172.225C219.663 172.225 219.663 172.225 219.594 172.225L188.195 166.46C187.848 166.39 187.57 166.043 187.64 165.626C187.709 165.279 188.056 165.001 188.473 165.07L219.872 170.836C220.219 170.905 220.497 171.253 220.428 171.67C220.358 172.017 220.08 172.225 219.733 172.225Z" fill="white"/>
<path d="M250.507 202.096C250.437 202.096 250.437 202.096 250.368 202.096L220.428 196.608C220.08 196.538 219.803 196.191 219.872 195.774C219.942 195.427 220.289 195.149 220.706 195.219L250.645 200.706C250.993 200.776 251.271 201.123 251.201 201.54C251.062 201.887 250.784 202.096 250.507 202.096Z" fill="white"/>
<path d="M243.421 65.5951H206.465C205.214 65.5951 204.172 64.5531 204.172 63.3027V50.8683C204.172 49.6179 205.214 48.5759 206.465 48.5759H243.421C244.671 48.5759 245.713 49.6179 245.713 50.8683V63.2332C245.782 64.5531 244.74 65.5951 243.421 65.5951Z" fill="#D5D5D5"/>
<path d="M271.277 84.073H219.594C218.344 84.073 217.302 83.031 217.302 81.7806V63.3721C217.302 62.1218 218.344 61.0798 219.594 61.0798H271.277C272.527 61.0798 273.569 62.1218 273.569 63.3721V81.7806C273.569 83.031 272.527 84.073 271.277 84.073Z" fill="#CFCFCF"/>
<path d="M231.056 79.2104H288.296C290.033 79.2104 291.422 80.5997 291.422 82.3364V99.8418C291.422 101.578 290.033 102.968 288.296 102.968H231.056C229.319 102.968 227.93 101.578 227.93 99.8418V82.3364C227.861 80.5997 229.319 79.2104 231.056 79.2104Z" fill="white"/>
<path opacity="0.74" d="M231.056 79.2104H288.296C290.033 79.2104 291.422 80.5997 291.422 82.3364V99.8418C291.422 101.578 290.033 102.968 288.296 102.968H231.056C229.319 102.968 227.93 101.578 227.93 99.8418V82.3364C227.861 80.5997 229.319 79.2104 231.056 79.2104Z" fill="#D8D8D8"/>
<path d="M271.207 93.9372C269.679 93.9372 268.429 92.6868 268.429 91.1585C268.429 89.6303 269.679 88.3799 271.207 88.3799C272.736 88.3799 273.986 89.6303 273.986 91.1585C273.986 92.6868 272.736 93.9372 271.207 93.9372ZM271.207 89.0746C270.096 89.0746 269.123 89.9776 269.123 91.1585C269.123 92.27 270.026 93.2425 271.207 93.2425C272.388 93.2425 273.291 92.3395 273.291 91.1585C273.291 90.0471 272.388 89.0746 271.207 89.0746Z" fill="white"/>
<path d="M259.885 93.9372C258.356 93.9372 257.106 92.6868 257.106 91.1585C257.106 89.6303 258.356 88.3799 259.885 88.3799C261.413 88.3799 262.663 89.6303 262.663 91.1585C262.594 92.6868 261.413 93.9372 259.885 93.9372ZM259.885 89.0746C258.773 89.0746 257.801 89.9776 257.801 91.1585C257.801 92.27 258.704 93.2425 259.885 93.2425C260.996 93.2425 261.969 92.3395 261.969 91.1585C261.899 90.0471 260.996 89.0746 259.885 89.0746Z" fill="white"/>
<path d="M249.256 93.9372C247.728 93.9372 246.478 92.6868 246.478 91.1585C246.478 89.6303 247.728 88.3799 249.256 88.3799C250.784 88.3799 252.035 89.6303 252.035 91.1585C252.035 92.6868 250.784 93.9372 249.256 93.9372ZM249.256 89.0746C248.145 89.0746 247.172 89.9776 247.172 91.1585C247.172 92.27 248.075 93.2425 249.256 93.2425C250.368 93.2425 251.34 92.3395 251.34 91.1585C251.34 90.0471 250.368 89.0746 249.256 89.0746Z" fill="white"/>
<path d="M91.846 50.2431H180.485C182.291 50.2431 183.749 51.7019 183.749 53.508V184.104C183.749 190.286 178.748 195.288 172.565 195.288H111.019C97.8895 195.288 87.2612 184.66 87.2612 171.531V54.8278C87.2612 52.3271 89.2757 50.2431 91.846 50.2431Z" fill="white"/>
<path opacity="0.39" d="M88.3727 50.2431H182.013C182.985 50.2431 183.749 51.0072 183.749 51.9797V184.59C183.749 190.495 178.956 195.219 173.121 195.219H108.935C96.9865 195.219 87.2612 185.493 87.2612 173.545V51.3545C87.2612 50.7293 87.7475 50.2431 88.3727 50.2431Z" fill="#D8D8D8"/>
<path opacity="0.39" d="M96.5693 50.2431H182.36C183.124 50.2431 183.749 50.8683 183.749 51.6324V185.007C183.749 190.703 179.164 195.288 173.468 195.288H117.131C105.391 195.288 95.8052 185.771 95.8052 173.962V51.0072C95.8052 50.5904 96.1525 50.2431 96.5693 50.2431Z" fill="#959595"/>
<path d="M109.282 195.219H186.806C195.697 195.219 202.991 187.994 202.991 179.033V172.92H124.564V179.033C124.564 187.716 117.757 194.732 109.282 195.219Z" fill="#AAAAAA"/>
<g opacity="0.28">
<path opacity="0.28" d="M119.562 195.219H188.542C196.461 195.219 202.922 187.994 202.922 179.033V172.92H133.178V179.033C133.178 187.716 127.134 194.732 119.562 195.219Z" fill="#959595"/>
</g>
<path d="M169.092 156.248H113.38C112.963 156.248 112.686 155.97 112.686 155.553C112.686 155.137 112.963 154.859 113.38 154.859H169.092C169.509 154.859 169.787 155.137 169.787 155.553C169.787 155.901 169.439 156.248 169.092 156.248Z" fill="white"/>
<path d="M170.273 132.769H112.338C111.921 132.769 111.644 132.491 111.644 132.074C111.644 131.657 111.921 131.379 112.338 131.379H170.273C170.69 131.379 170.967 131.657 170.967 132.074C170.967 132.421 170.62 132.769 170.273 132.769Z" fill="white"/>
<path d="M141.236 144.508H111.643C111.227 144.508 110.949 144.231 110.949 143.814C110.949 143.397 111.227 143.119 111.643 143.119H141.236C141.653 143.119 141.931 143.397 141.931 143.814C141.931 144.161 141.583 144.508 141.236 144.508Z" fill="white"/>
<path d="M139.013 144.508H113.867C113.45 144.508 113.172 144.231 113.172 143.814C113.172 143.397 113.45 143.119 113.867 143.119H139.013C139.43 143.119 139.708 143.397 139.708 143.814C139.708 144.161 139.361 144.508 139.013 144.508Z" fill="white"/>
<path d="M150.892 107.691H112.755C112.338 107.691 112.06 107.414 112.06 106.997C112.06 106.58 112.338 106.302 112.755 106.302H150.892C151.308 106.302 151.586 106.58 151.586 106.997C151.586 107.344 151.239 107.691 150.892 107.691Z" fill="white"/>
<path d="M168.536 107.691H156.935C156.519 107.691 156.241 107.414 156.241 106.997C156.241 106.58 156.519 106.302 156.935 106.302H168.536C168.953 106.302 169.231 106.58 169.231 106.997C169.231 107.344 168.953 107.691 168.536 107.691Z" fill="white"/>
<path d="M170.273 119.431H129.01C128.593 119.431 128.315 119.153 128.315 118.737C128.315 118.32 128.593 118.042 129.01 118.042H170.273C170.69 118.042 170.968 118.32 170.968 118.737C170.968 119.153 170.62 119.431 170.273 119.431Z" fill="white"/>
<path d="M124.912 119.431H112.338C111.921 119.431 111.644 119.153 111.644 118.737C111.644 118.32 111.921 118.042 112.338 118.042H124.912C125.328 118.042 125.606 118.32 125.606 118.737C125.606 119.153 125.259 119.431 124.912 119.431Z" fill="white"/>
<path d="M169.092 97.7578H113.38C112.963 97.7578 112.686 97.4799 112.686 97.0631C112.686 96.6463 112.963 96.3685 113.38 96.3685H169.092C169.509 96.3685 169.787 96.6463 169.787 97.0631C169.787 97.4105 169.439 97.7578 169.092 97.7578Z" fill="white"/>
<path d="M169.092 74.2783H113.38C112.963 74.2783 112.686 74.0004 112.686 73.5836C112.686 73.1668 112.963 72.889 113.38 72.889H169.092C169.509 72.889 169.787 73.1668 169.787 73.5836C169.787 74.0004 169.439 74.2783 169.092 74.2783Z" fill="white"/>
<path d="M133.803 86.018H112.685C112.269 86.018 111.991 85.7402 111.991 85.3234C111.991 84.9066 112.269 84.6287 112.685 84.6287H133.803C134.22 84.6287 134.498 84.9066 134.498 85.3234C134.498 85.6707 134.22 86.018 133.803 86.018Z" fill="white"/>
<path d="M168.675 86.018H143.528C143.111 86.018 142.833 85.7402 142.833 85.3234C142.833 84.9066 143.111 84.6287 143.528 84.6287H168.675C169.092 84.6287 169.369 84.9066 169.369 85.3234C169.369 85.6707 169.022 86.018 168.675 86.018Z" fill="white"/>
<path opacity="0.21" d="M243.6 167.193C260.772 150.021 260.772 122.18 243.6 105.008C226.428 87.8363 198.587 87.8363 181.415 105.008C164.243 122.18 164.243 150.021 181.415 167.193C198.587 184.365 226.429 184.365 243.6 167.193Z" fill="white"/>
<path opacity="0.76" d="M178.054 139.229C176.525 139.229 175.275 137.979 175.275 136.45C175.275 114.291 193.336 96.2295 215.496 96.2295C217.024 96.2295 218.274 97.4799 218.274 99.0082C218.274 100.536 217.024 101.787 215.496 101.787C196.393 101.787 180.832 117.347 180.832 136.45C180.832 138.048 179.582 139.229 178.054 139.229Z" fill="white"/>
<path opacity="0.58" d="M212.509 181.464C187.501 181.464 167.147 161.111 167.147 136.103C167.147 111.095 187.501 90.7417 212.509 90.7417C237.516 90.7417 257.87 111.095 257.87 136.103C257.87 161.111 237.516 181.464 212.509 181.464ZM212.509 93.5204C189.029 93.5204 169.926 112.624 169.926 136.103C169.926 159.582 189.029 178.686 212.509 178.686C235.988 178.686 255.091 159.582 255.091 136.103C255.091 112.624 235.988 93.5204 212.509 93.5204Z" fill="#959595"/>
<path d="M252.938 167.571C253.007 167.502 253.077 167.432 253.146 167.432C259.815 158.749 263.844 147.912 263.844 136.103C263.844 107.761 240.851 84.7677 212.509 84.7677C184.167 84.7677 161.173 107.761 161.173 136.103C161.173 164.445 184.167 187.438 212.509 187.438C224.248 187.438 235.085 183.479 243.699 176.81L249.604 170.905L252.938 167.571ZM212.509 180.075C188.196 180.075 168.537 160.416 168.537 136.103C168.537 111.79 188.196 92.1311 212.509 92.1311C236.822 92.1311 256.481 111.79 256.481 136.103C256.481 160.347 236.822 180.075 212.509 180.075Z" fill="#959595"/>
<path d="M212.509 188.133C183.819 188.133 160.479 164.792 160.479 136.103C160.479 107.414 183.819 84.073 212.509 84.073C241.198 84.073 264.539 107.414 264.539 136.103C264.539 147.704 260.787 158.679 253.702 167.849L253.563 167.988C253.493 168.057 253.424 168.057 253.424 168.127L244.185 177.366C235.016 184.382 224.04 188.133 212.509 188.133ZM212.509 85.4623C184.583 85.4623 161.868 108.178 161.868 136.103C161.868 164.028 184.583 186.744 212.509 186.744C223.693 186.744 234.39 183.131 243.282 176.324L252.451 167.154C252.521 167.085 252.59 167.015 252.66 166.946C259.537 158.054 263.149 147.356 263.149 136.103C263.149 108.178 240.434 85.4623 212.509 85.4623ZM212.509 180.77C187.848 180.77 167.842 160.763 167.842 136.103C167.842 111.443 187.848 91.4364 212.509 91.4364C237.169 91.4364 257.175 111.443 257.175 136.103C257.175 160.763 237.099 180.77 212.509 180.77ZM212.509 92.8257C188.682 92.8257 169.231 112.207 169.231 136.103C169.231 159.93 188.612 179.38 212.509 179.38C236.335 179.38 255.786 159.999 255.786 136.103C255.786 112.207 236.335 92.8257 212.509 92.8257Z" fill="#959595"/>
<path d="M251.618 175.629L249.603 173.615C248.839 172.85 248.839 171.6 249.603 170.836L243.699 176.81L243.629 176.88C242.865 177.644 242.865 178.894 243.629 179.658L246.061 182.089C246.825 180.77 249.187 178.13 251.618 175.629Z" fill="#A5A5A5"/>
<path d="M249.673 170.836C248.909 171.6 248.909 172.85 249.673 173.615L251.688 175.629C254.119 173.198 256.62 170.905 258.009 169.933L255.717 167.641C255.022 166.946 253.911 166.876 253.146 167.502C253.077 167.571 253.008 167.641 252.938 167.641L249.673 170.836Z" fill="#A5A5A5"/>
<path opacity="0.43" d="M249.673 170.836C248.909 171.6 248.909 172.85 249.673 173.615L251.688 175.629C254.119 173.198 256.62 170.905 258.009 169.933L255.717 167.641C255.022 166.946 253.911 166.876 253.146 167.502C253.077 167.571 253.008 167.641 252.938 167.641L249.673 170.836Z" fill="#959595"/>
<path d="M295.243 205.986L259.12 169.447C258.981 169.308 258.565 169.516 258.009 169.863C256.62 170.836 254.049 173.128 251.687 175.56C249.187 178.06 246.894 180.7 246.061 182.02C245.783 182.437 245.713 182.784 245.783 182.854L281.905 219.393C285.587 223.074 291.561 223.074 295.173 219.393C298.924 215.711 298.924 209.737 295.243 205.986Z" fill="#D5D5D5"/>
<path opacity="0.14" d="M295.243 205.986L259.12 169.447C258.634 168.96 254.536 172.642 250.993 176.254C248.006 179.38 291.561 223.074 295.243 219.393C298.924 215.711 298.924 209.737 295.243 205.986Z" fill="#959595"/>
<path d="M163.534 186.605H104.419C100.251 186.605 96.9166 183.27 96.9166 179.102V174.17C96.9166 170.002 93.5822 166.668 89.4143 166.668H62.1141C57.9462 166.668 54.6118 170.002 54.6118 174.17V193.551V215.85V252.181C54.6118 256.071 57.7378 259.197 61.6279 259.197H163.604C167.494 259.197 170.62 256.071 170.62 252.181V193.551C170.481 189.731 167.355 186.605 163.534 186.605Z" fill="#D2D2D2"/>
<path d="M157.005 186.605H97.8896C93.7217 186.605 90.3873 183.27 90.3873 179.102V174.17C90.3873 170.002 87.0529 166.668 82.885 166.668H55.5848C51.4169 166.668 48.0825 170.002 48.0825 174.17V193.551V215.85V252.181C48.0825 256.071 51.2085 259.197 55.0986 259.197H157.075C160.965 259.197 164.091 256.071 164.091 252.181V193.551C164.021 189.731 160.826 186.605 157.005 186.605Z" fill="#D2D2D2"/>
<path opacity="0.12" d="M157.005 186.605H97.8896C93.7217 186.605 90.3873 183.27 90.3873 179.102V174.17C90.3873 170.002 87.0529 166.668 82.885 166.668H55.5848C51.4169 166.668 48.0825 170.002 48.0825 174.17V193.551V215.85V252.181C48.0825 256.071 51.2085 259.197 55.0986 259.197H157.075C160.965 259.197 164.091 256.071 164.091 252.181V193.551C164.021 189.731 160.826 186.605 157.005 186.605Z" fill="white"/>
<path opacity="0.12" d="M142 186.605H91.0125C87.4697 186.605 84.5521 183.27 84.5521 179.102V174.17C84.5521 170.002 81.6346 166.668 78.0918 166.668H54.5429C50.9306 166.668 48.0825 170.002 48.0825 174.17V193.551V215.85V252.181C48.0825 256.071 50.7917 259.197 54.1261 259.197H142.07C145.404 259.197 148.113 256.071 148.113 252.181V193.551C148.044 189.731 145.335 186.605 142 186.605Z" fill="white"/>
<path d="M53.5003 194.454C53.0835 194.454 52.8057 194.177 52.8057 193.76V176.741C52.8057 174.101 54.9591 171.947 57.5988 171.947H77.7439C78.1607 171.947 78.4386 172.225 78.4386 172.642C78.4386 173.059 78.1607 173.337 77.7439 173.337H57.5988C55.7232 173.337 54.195 174.865 54.195 176.741V193.76C54.195 194.107 53.9171 194.454 53.5003 194.454Z" fill="white"/>
</g>
</svg>
