<?xml version="1.0" standalone="no"?>
<!DOCTYPE svg PUBLIC "-//W3C//DTD SVG 20010904//EN"
 "http://www.w3.org/TR/2001/REC-SVG-20010904/DTD/svg10.dtd">
<svg version="1.0" xmlns="http://www.w3.org/2000/svg"
 width="181.000000pt" height="181.000000pt" viewBox="0 0 181.000000 181.000000"
 preserveAspectRatio="xMidYMid meet">
<metadata>
Created by potrace 1.14, written by Peter Selinger 2001-2017
</metadata>
<g transform="translate(0.000000,181.000000) scale(0.100000,-0.100000)"
fill="#000000" stroke="none">
<path d="M720 1791 c-333 -73 -586 -308 -687 -638 -23 -78 -26 -104 -27 -238
0 -178 18 -257 89 -402 240 -486 844 -650 1300 -352 177 115 306 292 372 506
23 78 26 104 27 238 0 178 -18 257 -89 402 -114 231 -310 394 -562 469 -121
35 -301 42 -423 15z m494 -276 c21 -21 39 -120 32 -169 -10 -61 -34 -107 -149
-292 -125 -202 -180 -308 -202 -395 -20 -73 -23 -209 -10 -373 7 -102 7 -108
-10 -105 -13 3 -22 19 -30 54 -18 79 -101 232 -158 293 -29 30 -96 88 -149
128 -53 41 -99 78 -103 84 -9 15 31 12 73 -5 119 -50 213 -150 294 -310 27
-55 47 -89 44 -75 -36 167 -43 524 -12 689 44 239 147 407 287 471 53 24 73
25 93 5z"/>
<path d="M1134 1446 c-75 -33 -173 -153 -214 -264 -34 -90 -60 -242 -66 -390
l-5 -137 36 135 c67 254 176 534 223 572 8 7 3 -11 -12 -41 -48 -95 -126 -303
-167 -445 -21 -76 -39 -143 -39 -149 0 -6 19 27 43 74 24 46 85 151 137 233
148 239 167 290 139 389 -11 41 -24 45 -75 23z"/>
</g>
</svg>
