<svg width="112" height="100" viewBox="0 0 112 100" fill="none" xmlns="http://www.w3.org/2000/svg">
<path d="M33.1557 100C29.6793 100 27.9411 95.5047 27.9411 86.5139C27.9411 81.9385 28.3757 77.9283 29.2448 72.0717C26.8238 71.9442 24.4055 71.758 21.9864 71.5913C19.2399 71.402 16.4923 71.2379 13.7382 71.2138C12.7777 79.6784 11.9652 86.5711 11.9652 94.3036C11.9652 94.5095 11.9652 94.749 11.8171 94.7841C11.6341 94.8527 11.4511 94.887 11.2682 94.887C11.1214 94.7841 11.0695 94.7612 11.0009 94.3036C10.978 93.1598 11.0009 94.107 11.0009 92.9403C11.0009 86.3288 11.3081 78.3972 12.0857 71.2138C11.1023 71.2595 9.44993 71.3625 8.55796 71.454C4.64702 71.8887 2.10834 71.8725 0.941917 73.8171C0.873304 73.9086 0.736078 73.9543 0.530239 73.9543C0.461626 73.9086 0.415884 73.84 0.393013 73.7484C0.393013 73.6569 0.404448 73.5883 0.427319 73.5426C1.13632 72.3758 2.18839 71.4836 3.58352 70.8659C5.43607 70.0881 8.76945 69.5848 12.1544 69.4246C13.2522 59.8162 14.3317 52.3582 16.1842 46.9821C16.3901 46.7533 16.3798 46.6389 16.7915 46.6389C17.3176 46.6389 17.1486 46.7533 17.1486 46.9821C15.662 53.3877 14.836 60.8686 13.8069 69.4246C16.5386 69.4507 19.2631 69.607 21.9864 69.7915C24.4283 69.957 26.8692 70.1452 29.3134 70.2825C30.2282 64.426 31.2346 59.3015 32.3324 54.909C33.4302 50.5166 34.3107 47.9086 34.974 47.085C35.0654 46.9935 35.2255 46.9478 35.4543 46.9478C36.026 46.9478 36.3119 47.1193 36.3119 47.4625C35.7173 49.5443 34.974 52.6556 34.082 56.7964C33.2129 60.9143 32.3781 65.4326 31.5776 70.3512C32.1265 70.3741 32.927 70.3855 33.9791 70.3855C37.8671 70.3855 40.3338 69.2484 41.7747 68.013C41.8205 67.9444 41.8891 67.91 41.9806 67.91C42.1864 67.91 43.3065 68.0888 43.3065 68.2718C43.3065 68.3633 43.2722 68.4434 43.2036 68.512C41.7627 69.8617 38.1416 72.1746 33.9791 72.1746C32.9041 72.1746 32.0808 72.1632 31.509 72.1403C30.2968 79.6212 29.6908 84.6952 29.6908 89.774V90.2887C29.6908 96.2368 30.7771 99.2108 32.9499 99.2108C33.1786 99.2108 33.2929 99.371 33.2929 99.6912L33.1557 100Z" fill="#EF9FD9"/>
<path d="M43.0017 90.6662C40.646 90.5747 38.9421 89.5909 37.89 87.715C37.0209 86.1822 36.5864 84.455 36.5864 82.5333C36.5864 82.1215 36.655 81.2064 36.7922 79.788C36.9066 78.3468 37.6727 76.6996 39.0907 74.8466C40.4859 72.9706 42.4528 71.9869 44.9915 71.8954C46.2951 71.9411 46.9469 72.5131 46.9469 73.6112C46.9469 74.4348 46.6153 75.3956 45.952 76.4937C45.2888 77.5918 44.3396 78.587 43.1046 79.4792C41.8924 80.3714 40.5545 80.8404 39.0907 80.8861C38.9993 81.6182 38.9535 82.3274 38.9535 83.0137C38.9535 83.7916 39.0336 84.7181 39.1937 85.7933C39.3538 86.8457 39.754 87.8294 40.3944 88.7445C41.0348 89.6367 41.9153 90.0828 43.036 90.0828C45.2773 89.9913 47.6559 88.2069 50.1717 84.7295C52.4588 81.3894 54.0598 78.1866 54.9746 75.1211C55.0204 74.9838 55.1119 74.9152 55.2491 74.9152C55.4321 74.9152 55.5236 75.0067 55.5236 75.1897V75.2927C54.5858 78.404 52.962 81.664 50.652 85.0727C47.9761 88.8017 45.426 90.6662 43.0017 90.6662ZM39.1937 80.3028C40.4287 80.2341 41.5722 79.8109 42.6243 79.0331C43.6764 78.2553 44.534 77.3631 45.1973 76.3565C45.9292 75.2355 46.2951 74.2975 46.2951 73.5426C46.2951 72.8334 45.9177 72.4788 45.163 72.4788C44.0881 72.4788 43.1389 72.8562 42.3156 73.6112C41.5151 74.3433 40.8518 75.3041 40.3258 76.4937C39.7997 77.6605 39.4224 78.9301 39.1937 80.3028Z" fill="#EF9FD9"/>
<path d="M64.9578 95.2302C63.151 95.2302 61.9503 94.6239 61.3557 93.4114C60.8754 92.4735 60.6352 91.3296 60.6352 89.9799C60.6352 88.4013 60.8982 86.2852 61.4243 83.6314C61.8588 81.3208 62.0761 79.6965 62.0761 78.7586C62.0761 76.8369 61.3328 75.4185 59.8462 74.5034C58.8398 73.9086 57.7306 73.3824 56.5184 72.9249L56.2097 72.8219L55.6951 74.7779C55.6493 74.8923 55.6036 75.0181 55.5579 75.1554C55.535 75.2698 55.4549 75.327 55.3177 75.327C55.1347 75.327 55.0433 75.2355 55.0433 75.0525L55.1119 74.6407C55.272 74.0916 55.4549 73.4053 55.6608 72.5817C53.5795 71.7581 52.2187 70.8087 51.5783 69.7335C51.098 68.8642 50.8579 67.9605 50.8579 67.0225C50.8579 66.8166 50.9036 66.3591 50.9951 65.6499C51.0637 64.9407 51.4525 64.1743 52.1615 63.3507C52.8476 62.5043 53.7053 62.0811 54.7345 62.0811H54.8374C56.4613 62.0811 59.0782 63.019 59.0782 65.7185C59.0782 67.2742 56.9759 69.6763 56.3812 72.1013C57.0216 72.3987 57.6849 72.6847 58.371 72.9592C59.6289 73.4396 60.7839 73.9772 61.8359 74.572C62.888 75.1668 63.6084 75.9218 63.9973 76.8369C64.226 77.5689 64.3403 78.4383 64.3403 79.4449C64.3403 80.909 64.123 82.9337 63.6885 85.5188C63.2997 87.898 63.1053 89.9799 63.1053 91.7643C63.1053 93.5487 63.7114 94.5095 64.9235 94.6468H64.9578C67.1306 94.6468 69.2462 92.3705 71.3045 87.818C72.5035 83.5508 74.1854 80.697 75.387 78.5205C75.387 78.3604 75.4785 78.2803 75.6615 78.2803C75.8444 78.2803 75.9359 78.3718 75.9359 78.5548V78.6578C74.9132 82.5125 73.2768 86.1084 71.8534 88.0582C69.7951 92.7251 67.4965 95.1158 64.9578 95.2302ZM55.8323 71.8611C56.4041 69.4361 58.495 67.0912 58.495 65.6499C58.495 63.3851 56.0953 62.6644 54.906 62.6644C54.1513 62.6644 53.5338 63.3622 53.0535 64.7577C52.8019 65.444 52.6761 66.1646 52.6761 66.9196C52.6761 67.6974 52.8019 68.5096 53.0535 69.356C53.5109 70.3855 54.4372 71.2205 55.8323 71.8611Z" fill="#EF9FD9"/>
<path d="M86.9826 94.894C83.8267 93.9417 84.2088 91.9459 83.9636 90.634C83.9636 89.6274 84.1237 88.1175 84.4439 86.1043C82.1568 90.1078 79.7439 92.1096 77.2053 92.1096C75.833 92.1096 74.7924 91.6635 74.0834 90.7713C73.1685 89.6732 72.7111 88.1518 72.7111 86.2073C72.7111 85.2007 72.8826 84.0454 73.2257 82.7414C73.5459 81.4374 74.1405 80.099 75.0096 78.7264C75.8559 77.3538 76.9194 76.2328 78.2001 75.3635C79.4809 74.4941 80.9332 74.0595 82.5571 74.0595C83.6549 74.0595 84.5469 74.4026 85.233 75.0889C85.942 75.7752 86.2965 76.5188 86.2965 77.3195C86.2965 77.4796 86.205 77.5597 86.022 77.5597C85.8391 77.5597 85.7233 77.4419 85.6173 77.2654C85.2557 76.6625 85.3577 76.7831 85.0146 76.1802C84.6716 75.5773 83.0859 75.095 82.4832 75.095C81.8805 75.095 79.8926 75.2491 78.8177 76.3929C77.7656 77.5368 76.9308 78.9323 76.3133 80.5795C75.4899 82.7528 75.0783 84.9261 75.0783 87.0995C75.0783 90.0278 75.7873 91.4919 77.2053 91.4919C78.1201 91.4919 79.0464 91.1144 79.9841 90.3595C81.7452 88.9411 83.3461 86.7678 84.787 83.8395C85.2444 81.5289 85.6332 79.7788 85.9534 78.5891C86.0678 78.2689 86.3422 78.1087 86.7768 78.1087C87.097 78.1087 87.3829 78.1888 87.6344 78.3489C87.9089 78.4862 88.0461 78.6692 88.0461 78.898V78.9323C87.6802 80.2592 87.3257 81.975 86.9826 84.0797C86.4108 87.6257 85.9534 87.3954 85.9534 89.9806C85.9534 90.9643 85.8817 91.8425 86.4322 92.4631C86.9826 93.0838 87.6731 93.4975 88.8624 93.6527C90.0516 93.8079 92.2233 93.3941 94.4466 93.0838C95.0671 92.7217 97.6131 92.9292 97.2905 93.6527C95.1524 94.4195 89.0175 95.508 86.9826 94.894Z" fill="#EF9FD9"/>
<path fill-rule="evenodd" clip-rule="evenodd" d="M77.1218 50.8099C76.8084 45.4884 77.0187 41.6507 78.15 37.7831C79.29 33.886 81.3794 29.9081 84.9098 24.3257C87.5655 20.1264 89.6307 16.8504 91.0363 14.3585C91.7393 13.1121 92.2875 12.044 92.6645 11.1424C93.027 10.2751 93.257 9.50278 93.2809 8.84357C93.5682 6.85378 93.3668 4.85118 92.9748 3.35024C92.7782 2.59761 92.5244 1.93479 92.2352 1.45146C92.0923 1.21259 91.919 0.980567 91.7091 0.807474C91.5261 0.656571 91.2489 0.499517 90.9096 0.511899C90.3325 0.450885 89.5218 0.598574 88.6219 0.928694C87.6424 1.28799 86.4751 1.89328 85.2354 2.81839C82.7517 4.67184 79.9739 7.81158 77.8223 12.8487C75.5446 18.1812 74.5456 25.5171 74.3413 32.5851C74.1366 39.6639 74.727 46.5668 75.684 51.0736L75.687 51.0879L75.6906 51.102C76.0031 52.3298 76.3362 53.8878 76.6328 55.6523C75.8637 53.2793 74.9051 50.8353 73.7343 48.4844C70.6228 42.2369 65.9385 36.5037 59.1922 34.6757C59.1922 34.6757 55.9038 33.8475 58.8106 36.084C59.2927 36.455 59.9059 36.894 60.6073 37.3962C64.1348 39.9219 69.8932 44.0449 72.4282 49.1349C75.4484 55.1992 77.0236 61.9316 77.5469 66.2836C77.521 70.7827 76.8676 75.124 75.1206 78.2158C73.9443 80.2977 73.9683 80.7369 74.0131 81.556C74.0504 82.2392 74.1021 83.1866 73.4839 85.5718C74.4059 82.8787 73.8289 85.4605 73.575 86.5967C73.4171 87.3031 73.3841 87.4508 73.9139 85.4245C74.6641 82.5552 74.7215 81.9638 74.9447 81.4436C75.1338 81.0029 75.4419 80.6133 76.391 78.9336C78.3285 75.5045 78.984 70.842 79.0062 66.2456C79.0349 60.3066 78.0052 54.3057 77.1218 50.8099ZM73.4836 85.5726L73.4668 85.6376C72.0708 90.9767 73.4696 85.2193 73.4836 85.5726ZM79.3917 14.8468C81.4488 10.0311 84.0711 7.1027 86.3357 5.41279C87.4701 4.56622 88.5138 4.03104 89.352 3.72356C90.2189 3.40558 90.7919 3.35768 91.0108 3.39139L91.0481 3.39713C91.0864 3.43914 91.1423 3.51127 91.2107 3.6256C91.4039 3.94857 91.6141 4.46801 91.7907 5.14398C92.1421 6.48939 92.3232 8.31122 92.0588 10.0981L92.0521 10.1436L92.0511 10.1895C92.0428 10.5815 91.8963 11.1666 91.5459 12.0046C91.201 12.8296 90.6845 13.8408 89.993 15.0667C88.6097 17.5193 86.5675 20.7596 83.9042 24.9709C80.3565 30.5808 78.1764 34.699 76.9773 38.7985C76.6166 40.0314 76.346 41.258 76.1526 42.5178C75.9957 39.8384 75.9432 36.9635 76.0274 34.0523C76.2298 27.0493 77.2209 19.9291 79.3917 14.8468Z" fill="#EF9FD9"/>
<path fill-rule="evenodd" clip-rule="evenodd" d="M80.4971 25.4408C78.4359 32.1201 76.9358 38.7849 76.186 42.8773L75.3659 42.727C76.1208 38.6065 77.6284 31.9094 79.7004 25.1949C81.7687 18.4928 84.414 11.7236 87.4598 7.49437C87.4598 7.49437 88.829 5.57607 87.6753 7.63908C86.5216 9.70208 82.5621 18.7492 80.4971 25.4408Z" fill="#EF9FD9"/>
</svg>
